<?xml version="1.0" standalone="no"?>
<!DOCTYPE svg PUBLIC "-//W3C//DTD SVG 20010904//EN"
 "http://www.w3.org/TR/2001/REC-SVG-20010904/DTD/svg10.dtd">
<svg version="1.0" xmlns="http://www.w3.org/2000/svg"
 width="300.000000pt" height="300.000000pt" viewBox="0 0 300.000000 300.000000"
 preserveAspectRatio="xMidYMid meet">
<metadata>
Created by potrace 1.10, written by Peter Selinger 2001-2011
</metadata>
<g transform="translate(0.000000,300.000000) scale(0.100000,-0.100000)"
fill="#000000" stroke="none">
<path d="M579 2883 c-8 -9 -14 -35 -13 -59 1 -37 -2 -43 -23 -49 -52 -13 -53
-95 -1 -114 18 -6 22 -16 23 -51 1 -43 29 -80 60 -80 29 0 57 36 62 81 4 33
11 48 26 55 11 5 25 16 30 25 15 24 0 68 -27 80 -18 9 -25 21 -29 55 -2 24
-10 51 -17 59 -17 20 -74 19 -91 -2z m65 -49 c3 -9 6 -24 6 -34 0 -10 12 -32
26 -49 26 -31 25 -40 -5 -75 -9 -10 -20 -34 -26 -53 -13 -45 -27 -46 -40 -3
-5 20 -20 50 -33 68 l-24 32 25 29 c13 16 28 46 31 65 7 37 29 48 40 20z"/>
<path d="M2787 2822 c-22 -24 -21 -65 1 -85 40 -36 102 -9 102 45 0 51 -69 78
-103 40z"/>
<path d="M1501 2767 c-121 -38 -259 -316 -367 -737 -19 -74 -36 -135 -38 -137
-1 -2 -49 -8 -106 -14 -288 -29 -497 -95 -535 -169 -35 -67 -4 -130 85 -175
51 -26 209 -67 326 -85 l71 -11 6 -82 c9 -117 73 -289 135 -359 11 -13 14 -38
13 -100 -3 -97 -13 -114 -101 -157 -65 -32 -254 -112 -324 -136 -59 -21 -110
-65 -139 -119 -20 -37 -22 -59 -25 -216 l-4 -175 1002 0 1002 0 -4 175 c-3
147 -6 181 -22 210 -38 72 -94 115 -181 139 -72 20 -71 15 -20 157 86 241 177
466 196 485 35 35 157 19 200 -27 19 -20 20 -27 10 -52 -14 -34 -78 -99 -87
-89 -4 4 -10 24 -13 44 -5 29 -13 41 -35 52 -25 12 -31 11 -55 -6 -55 -42 -33
-148 41 -193 48 -29 96 -26 152 11 159 106 167 281 15 364 -45 24 -68 30 -140
33 -91 5 -141 -11 -181 -55 -34 -38 -132 -274 -234 -568 -15 -44 -28 -81 -30
-83 -5 -8 -161 78 -181 100 -18 19 -22 36 -24 106 -1 62 2 87 13 100 62 70
126 242 135 359 l6 82 71 11 c117 18 275 59 326 85 89 45 120 108 85 175 -39
75 -244 139 -544 170 -52 6 -96 12 -98 14 -2 2 -19 73 -39 157 -102 454 -185
684 -260 718 -30 13 -57 13 -103 -2z m109 -66 c57 -60 130 -282 214 -651 40
-176 52 -196 125 -205 333 -41 491 -82 546 -141 31 -34 31 -55 0 -92 -39 -46
-147 -83 -340 -116 -115 -20 -129 -34 -138 -137 -10 -111 -47 -215 -117 -326
-27 -43 -30 -55 -30 -132 0 -119 23 -151 155 -212 108 -51 116 -44 191 169 61
173 140 369 167 416 34 60 67 79 141 84 82 5 156 -18 201 -64 64 -64 55 -144
-25 -225 -51 -50 -91 -66 -133 -50 -31 12 -69 67 -65 96 3 23 38 34 38 12 0
-24 40 -67 63 -67 43 1 117 88 117 137 0 64 -82 122 -173 123 -57 0 -94 -19
-123 -63 -37 -57 -210 -512 -221 -582 -8 -48 22 -79 96 -101 68 -20 133 -80
150 -139 12 -46 15 -264 3 -283 -7 -10 -205 -12 -958 -10 l-949 3 -3 123 c-1
69 2 141 9 165 15 56 80 121 139 138 68 19 287 116 350 154 76 46 90 74 90
177 0 77 -3 88 -32 134 -71 111 -117 250 -118 351 0 68 -27 90 -135 109 -193
33 -301 70 -340 116 -32 37 -32 62 0 94 58 58 218 99 546 139 65 8 84 33 114
150 89 346 198 609 288 693 22 21 86 50 111 52 5 0 26 -18 46 -39z"/>
<path d="M1503 2668 c-99 -70 -231 -390 -315 -764 -30 -135 -31 -143 -15 -167
26 -39 75 -49 278 -54 214 -6 321 6 356 39 53 49 13 88 -90 88 -72 0 -107 11
-107 35 0 11 14 13 68 8 125 -10 141 16 106 173 -71 320 -149 572 -195 628
-36 42 -44 44 -86 14z m85 -90 c16 -40 41 -111 55 -158 32 -105 127 -491 127
-514 0 -13 -11 -16 -58 -16 -32 0 -63 5 -69 11 -9 9 -19 9 -42 -1 -34 -14 -46
-39 -37 -76 10 -38 54 -54 151 -54 105 0 113 -19 14 -36 -124 -23 -480 -13
-525 14 -15 9 66 338 125 512 73 215 170 390 216 390 7 0 27 -33 43 -72z"/>
<path d="M881 1785 c-258 -41 -370 -96 -315 -156 28 -31 64 -47 156 -69 394
-93 1162 -93 1556 0 92 22 128 38 156 69 16 17 17 25 8 46 -14 31 -50 49 -148
74 -88 22 -272 51 -326 51 -39 0 -78 -33 -78 -67 0 -30 -29 -50 -100 -70 -54
-15 -105 -18 -300 -18 -224 0 -238 2 -305 25 -64 23 -71 28 -80 61 -21 75 -48
81 -224 54z m185 -46 c-12 -61 35 -96 167 -123 106 -22 428 -22 535 0 125 26
174 61 165 119 -5 30 -3 32 18 29 13 -2 76 -10 139 -19 127 -18 245 -46 306
-71 l39 -17 -45 -19 c-113 -48 -349 -84 -657 -100 -438 -22 -942 22 -1123 100
l-45 19 39 17 c60 25 178 53 301 70 137 20 159 23 164 25 2 0 1 -13 -3 -30z"/>
<path d="M1039 1431 c-23 -29 -23 -56 -4 -139 30 -125 113 -272 155 -272 10 0
43 15 75 34 68 42 129 56 235 56 106 0 167 -14 235 -56 32 -19 65 -34 75 -34
62 0 186 286 165 381 -12 54 -3 53 -477 54 l-440 0 -19 -24z m461 -16 c212 0
398 4 414 8 l29 8 -7 -64 c-9 -95 -53 -212 -108 -290 -20 -28 -21 -28 -42 -10
-66 59 -153 84 -286 84 -133 0 -220 -25 -286 -84 -21 -18 -22 -18 -42 10 -55
78 -99 195 -108 290 l-7 64 29 -8 c16 -4 202 -8 414 -8z"/>
<path d="M1347 1049 c-82 -22 -137 -106 -137 -208 0 -134 80 -419 152 -538 45
-75 99 -123 140 -123 95 0 226 255 274 533 20 115 14 203 -16 252 -45 73 -145
112 -177 70 -7 -11 -11 -26 -8 -36 12 -38 -4 -49 -75 -49 -60 0 -69 3 -75 20
-3 11 -4 24 0 30 9 14 -11 47 -32 52 -10 3 -31 1 -46 -3z m50 -37 c-21 -23
-22 -66 -1 -86 22 -23 186 -23 208 0 21 21 20 63 -1 87 -17 19 -17 19 7 12
130 -40 160 -114 125 -314 -43 -244 -161 -491 -235 -491 -75 0 -191 244 -236
495 -30 172 -9 249 80 291 61 29 75 30 53 6z"/>
<path d="M995 654 c-71 -35 -170 -78 -219 -96 -165 -59 -191 -92 -191 -239 0
-150 -31 -139 380 -139 319 0 343 1 358 18 23 25 22 28 -19 118 -49 108 -69
163 -98 274 -17 63 -33 101 -47 113 -12 9 -24 17 -28 16 -3 0 -64 -29 -136
-65z m155 2 c0 -60 98 -337 141 -398 11 -14 19 -30 19 -35 0 -4 -155 -7 -345
-5 l-345 3 0 73 c0 40 3 88 6 105 9 45 54 86 111 101 69 20 311 127 358 160
45 30 55 29 55 -4z"/>
<path d="M1842 704 c-12 -8 -26 -34 -32 -57 -27 -107 -76 -249 -111 -324 -44
-93 -46 -104 -21 -126 15 -14 42 -17 147 -17 118 0 131 2 152 22 15 14 41 78
79 191 l56 170 -20 26 c-17 23 -113 80 -198 117 -26 11 -34 11 -52 -2z m163
-98 c32 -15 61 -29 63 -31 3 -2 -22 -83 -54 -179 l-59 -175 -132 -3 c-73 -2
-133 1 -133 5 0 5 9 22 20 37 30 43 96 213 121 315 12 50 23 96 25 102 2 9 18
3 46 -16 24 -16 70 -41 103 -55z"/>
<path d="M2167 538 c-18 -16 -39 -65 -72 -166 l-47 -143 23 -25 c22 -23 27
-24 164 -24 174 0 178 3 183 114 7 128 -27 196 -115 234 -82 34 -107 36 -136
10z m91 -35 c64 -20 107 -59 116 -104 3 -17 6 -65 6 -105 l0 -74 -148 0 -148
0 51 150 c27 82 54 150 59 150 5 0 34 -8 64 -17z"/>
<path d="M2276 2449 c-30 -24 -34 -59 -8 -82 22 -20 73 -22 90 -5 21 21 15 75
-10 92 -29 21 -40 20 -72 -5z"/>
<path d="M2843 2022 c-18 -12 -34 -61 -27 -88 5 -19 1 -26 -19 -33 -54 -21
-60 -92 -10 -108 25 -9 28 -14 28 -57 1 -52 20 -76 60 -76 38 0 57 23 62 76 4
38 10 52 26 60 40 18 39 90 -2 101 -14 4 -20 17 -24 56 -3 33 -11 55 -23 64
-20 14 -52 17 -71 5z m57 -97 c0 -12 13 -34 30 -50 l29 -28 -28 -32 c-16 -18
-31 -49 -35 -69 -9 -49 -34 -47 -42 3 -4 23 -17 49 -30 62 -30 28 -30 40 1 69
14 13 25 32 25 42 0 11 5 29 11 40 11 21 12 21 25 3 8 -10 14 -28 14 -40z"/>
<path d="M34 1962 c-60 -39 -12 -142 51 -109 27 14 35 27 35 59 0 40 -54 72
-86 50z"/>
<path d="M396 1324 c-36 -35 -7 -104 42 -104 27 0 62 33 62 58 0 52 -68 82
-104 46z"/>
<path d="M146 574 c-36 -35 -7 -104 42 -104 27 0 62 33 62 58 0 52 -68 82
-104 46z"/>
<path d="M2766 568 c-21 -30 -20 -54 4 -78 39 -39 100 -14 100 43 0 55 -73 79
-104 35z"/>
</g>
</svg>
